<mxfile host="app.diagrams.net" modified="2020-12-16T08:52:08.758Z" agent="5.0 (Windows NT 10.0; Win64; x64) AppleWebKit/537.36 (KHTML, like Gecko) Chrome/87.0.4280.88 Safari/537.36" etag="dxR1Pa25zhwYTzaSeaSw" version="14.0.0" type="github">
  <diagram name="Page-1" id="0783ab3e-0a74-02c8-0abd-f7b4e66b4bec">
    <mxGraphModel dx="1038" dy="580" grid="1" gridSize="10" guides="1" tooltips="1" connect="1" arrows="1" fold="1" page="1" pageScale="1" pageWidth="850" pageHeight="1100" background="#ffffff" math="0" shadow="0">
      <root>
        <mxCell id="0" />
        <mxCell id="1" parent="0" />
        <mxCell id="7u4_Z7Mw72sVkrCknOZ8-1" value="" style="ellipse;fillColor=#000000;strokeColor=none;" parent="1" vertex="1">
          <mxGeometry x="428.75" y="20" width="50" height="50" as="geometry" />
        </mxCell>
        <mxCell id="7u4_Z7Mw72sVkrCknOZ8-2" value="نمایش اعلان ثبت نظر کاربر پس از دریافت غذا" style="shape=rect;html=1;rounded=1;whiteSpace=wrap;align=center;fontSize=21;fontStyle=1" parent="1" vertex="1">
          <mxGeometry x="360" y="120" width="187.5" height="60" as="geometry" />
        </mxCell>
        <mxCell id="7u4_Z7Mw72sVkrCknOZ8-3" value="" style="endArrow=open;endFill=1;endSize=12;html=1;fontSize=21;exitX=0.5;exitY=1;exitDx=0;exitDy=0;entryX=0.5;entryY=0;entryDx=0;entryDy=0;" parent="1" source="7u4_Z7Mw72sVkrCknOZ8-1" target="7u4_Z7Mw72sVkrCknOZ8-2" edge="1">
          <mxGeometry width="160" relative="1" as="geometry">
            <mxPoint x="480" y="278" as="sourcePoint" />
            <mxPoint x="640" y="278" as="targetPoint" />
          </mxGeometry>
        </mxCell>
        <mxCell id="7u4_Z7Mw72sVkrCknOZ8-14" value="کلیک بر روی ثبت" style="shape=rect;html=1;rounded=1;whiteSpace=wrap;align=center;fontSize=21;fontStyle=1;fillColor=#e51400;strokeColor=#B20000;fontColor=#ffffff;" parent="1" vertex="1">
          <mxGeometry x="292.5" y="350" width="130" height="60" as="geometry" />
        </mxCell>
        <mxCell id="7u4_Z7Mw72sVkrCknOZ8-17" value="وارد کردن نظر" style="shape=rect;html=1;rounded=1;whiteSpace=wrap;align=center;fontSize=21;fontStyle=1" parent="1" vertex="1">
          <mxGeometry x="292.5" y="260" width="130" height="60" as="geometry" />
        </mxCell>
        <mxCell id="7u4_Z7Mw72sVkrCknOZ8-30" value="" style="endArrow=open;endFill=1;endSize=12;html=1;fontSize=21;exitX=0.5;exitY=1;exitDx=0;exitDy=0;entryX=0.5;entryY=0;entryDx=0;entryDy=0;" parent="1" source="7u4_Z7Mw72sVkrCknOZ8-17" target="7u4_Z7Mw72sVkrCknOZ8-14" edge="1">
          <mxGeometry width="160" relative="1" as="geometry">
            <mxPoint x="227.5" y="340" as="sourcePoint" />
            <mxPoint x="227.5" y="380" as="targetPoint" />
          </mxGeometry>
        </mxCell>
        <mxCell id="7u4_Z7Mw72sVkrCknOZ8-31" value="" style="html=1;points=[];perimeter=orthogonalPerimeter;fillColor=#000000;strokeColor=none;fontSize=16;rotation=90;" parent="1" vertex="1">
          <mxGeometry x="467.5" y="40" width="5" height="370" as="geometry" />
        </mxCell>
        <mxCell id="7u4_Z7Mw72sVkrCknOZ8-33" value="" style="endArrow=open;endFill=1;endSize=12;html=1;fontSize=16;exitX=0.5;exitY=1;exitDx=0;exitDy=0;entryX=0.3;entryY=0.547;entryDx=0;entryDy=0;entryPerimeter=0;" parent="1" source="7u4_Z7Mw72sVkrCknOZ8-2" target="7u4_Z7Mw72sVkrCknOZ8-31" edge="1">
          <mxGeometry width="160" relative="1" as="geometry">
            <mxPoint x="337.5" y="370" as="sourcePoint" />
            <mxPoint x="497.5" y="370" as="targetPoint" />
          </mxGeometry>
        </mxCell>
        <mxCell id="7u4_Z7Mw72sVkrCknOZ8-34" value="" style="endArrow=open;endFill=1;endSize=12;html=1;fontSize=16;exitX=0.3;exitY=0.264;exitDx=0;exitDy=0;exitPerimeter=0;" parent="1" source="7u4_Z7Mw72sVkrCknOZ8-31" target="7u4_Z7Mw72sVkrCknOZ8-35" edge="1">
          <mxGeometry width="160" relative="1" as="geometry">
            <mxPoint x="453.75" y="180" as="sourcePoint" />
            <mxPoint x="557.5" y="270" as="targetPoint" />
            <Array as="points">
              <mxPoint x="557.5" y="240" />
            </Array>
          </mxGeometry>
        </mxCell>
        <mxCell id="7u4_Z7Mw72sVkrCknOZ8-35" value="کلیک بر روی رد" style="shape=rect;html=1;rounded=1;whiteSpace=wrap;align=center;fontSize=21;fontStyle=1" parent="1" vertex="1">
          <mxGeometry x="492.5" y="270" width="130" height="60" as="geometry" />
        </mxCell>
        <mxCell id="7u4_Z7Mw72sVkrCknOZ8-37" value="" style="endArrow=open;endFill=1;endSize=12;html=1;fontSize=16;exitX=1.3;exitY=0.82;exitDx=0;exitDy=0;exitPerimeter=0;entryX=0.454;entryY=-0.05;entryDx=0;entryDy=0;entryPerimeter=0;" parent="1" source="7u4_Z7Mw72sVkrCknOZ8-31" target="7u4_Z7Mw72sVkrCknOZ8-17" edge="1">
          <mxGeometry width="160" relative="1" as="geometry">
            <mxPoint x="557.3199999999999" y="224" as="sourcePoint" />
            <mxPoint x="557.5" y="270" as="targetPoint" />
            <Array as="points" />
          </mxGeometry>
        </mxCell>
        <mxCell id="7u4_Z7Mw72sVkrCknOZ8-38" value="" style="endArrow=open;endFill=1;endSize=12;html=1;fontSize=16;exitX=0.5;exitY=1;exitDx=0;exitDy=0;entryX=0.24;entryY=0.831;entryDx=0;entryDy=0;entryPerimeter=0;" parent="1" source="7u4_Z7Mw72sVkrCknOZ8-44" target="7u4_Z7Mw72sVkrCknOZ8-39" edge="1">
          <mxGeometry width="160" relative="1" as="geometry">
            <mxPoint x="342.5" y="510" as="sourcePoint" />
            <mxPoint x="357.5" y="450" as="targetPoint" />
          </mxGeometry>
        </mxCell>
        <mxCell id="7u4_Z7Mw72sVkrCknOZ8-39" value="" style="html=1;points=[];perimeter=orthogonalPerimeter;fillColor=#000000;strokeColor=none;fontSize=16;rotation=90;" parent="1" vertex="1">
          <mxGeometry x="472.5" y="370" width="5" height="355" as="geometry" />
        </mxCell>
        <mxCell id="7u4_Z7Mw72sVkrCknOZ8-40" value="" style="endArrow=open;endFill=1;endSize=12;html=1;fontSize=16;exitX=0.5;exitY=1;exitDx=0;exitDy=0;entryX=1.04;entryY=0.266;entryDx=0;entryDy=0;entryPerimeter=0;" parent="1" source="7u4_Z7Mw72sVkrCknOZ8-35" target="7u4_Z7Mw72sVkrCknOZ8-39" edge="1">
          <mxGeometry width="160" relative="1" as="geometry">
            <mxPoint x="337.5" y="370" as="sourcePoint" />
            <mxPoint x="557" y="550" as="targetPoint" />
          </mxGeometry>
        </mxCell>
        <mxCell id="7u4_Z7Mw72sVkrCknOZ8-41" value="" style="endArrow=open;endFill=1;endSize=12;html=1;fontSize=16;exitX=0.5;exitY=1;exitDx=0;exitDy=0;entryX=0.5;entryY=0;entryDx=0;entryDy=0;" parent="1" source="7u4_Z7Mw72sVkrCknOZ8-42" target="t5gxLK92p2Mj6HOPJi7L-1" edge="1">
          <mxGeometry width="160" relative="1" as="geometry">
            <mxPoint x="340" y="390" as="sourcePoint" />
            <mxPoint x="470" y="680" as="targetPoint" />
          </mxGeometry>
        </mxCell>
        <mxCell id="7u4_Z7Mw72sVkrCknOZ8-42" value="ورود به صفحه اصلی" style="shape=rect;html=1;rounded=1;whiteSpace=wrap;align=center;fontSize=21;fontStyle=1" parent="1" vertex="1">
          <mxGeometry x="405" y="580" width="130" height="60" as="geometry" />
        </mxCell>
        <mxCell id="7u4_Z7Mw72sVkrCknOZ8-43" value="" style="endArrow=open;endFill=1;endSize=12;html=1;fontSize=16;exitX=1.3;exitY=0.517;exitDx=0;exitDy=0;exitPerimeter=0;entryX=0.5;entryY=0;entryDx=0;entryDy=0;" parent="1" source="7u4_Z7Mw72sVkrCknOZ8-39" target="7u4_Z7Mw72sVkrCknOZ8-42" edge="1">
          <mxGeometry width="160" relative="1" as="geometry">
            <mxPoint x="468.9649999999999" y="551.5" as="sourcePoint" />
            <mxPoint x="470" y="680" as="targetPoint" />
          </mxGeometry>
        </mxCell>
        <mxCell id="7u4_Z7Mw72sVkrCknOZ8-44" value="ثبت موفق نظر" style="shape=rect;html=1;rounded=1;whiteSpace=wrap;align=center;fontSize=21;fontStyle=1" parent="1" vertex="1">
          <mxGeometry x="292.5" y="440" width="130" height="60" as="geometry" />
        </mxCell>
        <mxCell id="7u4_Z7Mw72sVkrCknOZ8-45" value="" style="endArrow=open;endFill=1;endSize=12;html=1;fontSize=16;exitX=0.5;exitY=1;exitDx=0;exitDy=0;" parent="1" source="7u4_Z7Mw72sVkrCknOZ8-14" target="7u4_Z7Mw72sVkrCknOZ8-44" edge="1">
          <mxGeometry width="160" relative="1" as="geometry">
            <mxPoint x="357.5" y="410" as="sourcePoint" />
            <mxPoint x="357.5" y="545" as="targetPoint" />
          </mxGeometry>
        </mxCell>
        <mxCell id="W0LdKzp7sHMqHpbQo-3v-1" value="&lt;b&gt;&lt;font style=&quot;font-size: 34px&quot;&gt;نظرسنجی&lt;/font&gt;&lt;/b&gt;" style="text;html=1;strokeColor=none;fillColor=none;align=center;verticalAlign=middle;whiteSpace=wrap;rounded=0;" parent="1" vertex="1">
          <mxGeometry y="10" width="270" height="100" as="geometry" />
        </mxCell>
        <mxCell id="t5gxLK92p2Mj6HOPJi7L-1" value="" style="ellipse;html=1;shape=endState;fillColor=#000000;strokeColor=#000000;" vertex="1" parent="1">
          <mxGeometry x="445" y="680" width="50" height="50" as="geometry" />
        </mxCell>
      </root>
    </mxGraphModel>
  </diagram>
</mxfile>
